<svg xmlns="http://www.w3.org/2000/svg" xmlns:svgjs="http://svgjs.com/svgjs" xmlns:xlink="http://www.w3.org/1999/xlink" id="freepik_stories-designer-girl" class="animated" version="1.1" viewBox="0 0 500 500"><style>@keyframes wind{0%{transform:rotate(0deg)}25%{transform:rotate(1deg)}75%{transform:rotate(-1deg)}}@keyframes floating{0%{opacity:1;transform:translateY(0)}50%{transform:translateY(-10px)}}svg#freepik_stories-designer-girl:not(.animated) .animable{opacity:0}svg#freepik_stories-designer-girl.animated #freepik--background-simple--inject-1--inject-147{animation:3s Infinite linear wind;animation-delay:0s}svg#freepik_stories-designer-girl.animated #freepik--Plant--inject-1--inject-147{animation:1.5s Infinite linear wind;animation-delay:0s}svg#freepik_stories-designer-girl.animated #freepik--Cat--inject-1--inject-147{animation:3s Infinite linear floating;animation-delay:0s}</style><g style="transform-origin:254.161px 236.074px" id="freepik--background-simple--inject-1--inject-147" class="animable"><path id="el6n6ij1bvlnj" d="M401.41,371.15s44.11-38.7,44.11-89.77-28.63-51.08-53.4-116.86-95.19-74.29-137.75-53.4c-36.12,17.74-46.43,71.2-77.39,81.26s-34-14.7-83.58-1.55-24,85.13-24,85.13l96-29.41Z" class="animable" style="fill:#407bff;transform-origin:254.161px 236.074px"/><g id="elgmkl4x5uss"><path style="fill:#fff;opacity:.7;transform-origin:254.161px 236.074px" d="M401.41,371.15s44.11-38.7,44.11-89.77-28.63-51.08-53.4-116.86-95.19-74.29-137.75-53.4c-36.12,17.74-46.43,71.2-77.39,81.26s-34-14.7-83.58-1.55-24,85.13-24,85.13l96-29.41Z" class="animable"/></g></g><g style="transform-origin:236.15px 359.5px" id="freepik--Shadows--inject-1--inject-147" class="animable"><polyline id="elz0cptjlkv3n" points="230.33 371 163.67 397.67 86.33 320.33 137 313 230.33 371" class="animable" style="fill:#407bff;transform-origin:158.33px 355.335px"/><g id="el5mwipx0yq36"><polyline style="fill:#fff;opacity:.5;transform-origin:158.33px 355.335px" points="230.33 371 163.67 397.67 86.33 320.33 137 313 230.33 371" class="animable"/></g><ellipse id="elwuo9lcrcr89" cx="312.33" cy="395.67" class="animable" rx="16" ry="10.67" style="fill:#407bff;transform-origin:312.33px 395.67px"/><g id="elihexdw1r4s"><ellipse style="fill:#fff;opacity:.5;transform-origin:312.33px 395.67px" cx="312.33" cy="395.67" class="animable" rx="16" ry="10.67"/></g><polyline id="elof8f6lcdxj" points="249.67 335.09 347.35 342.83 325.67 331.67 249.67 335.09" class="animable" style="fill:#407bff;transform-origin:298.51px 337.25px"/><g id="elnsdqpbz86d8"><polyline style="fill:#fff;opacity:.5;transform-origin:298.51px 337.25px" points="249.67 335.09 347.35 342.83 325.67 331.67 249.67 335.09" class="animable"/></g><polyline id="el7i6ndis2mcj" points="271.67 305 242.69 302.63 246.33 298.33 263 298.33 271.67 305" class="animable" style="fill:#407bff;transform-origin:257.18px 301.665px"/><g id="eloneddk5cd6"><polyline style="fill:#fff;opacity:.5;transform-origin:257.18px 301.665px" points="271.67 305 242.69 302.63 246.33 298.33 263 298.33 271.67 305" class="animable"/></g><ellipse id="elwwlv2btvvg" cx="365.64" cy="408.34" class="animable" rx="20.33" ry="12.33" style="fill:#407bff;transform-origin:365.64px 408.34px"/><g id="elfuj2egfcc7u"><ellipse style="fill:#fff;opacity:.5;transform-origin:365.64px 408.34px" cx="365.64" cy="408.34" class="animable" rx="20.33" ry="12.33"/></g></g><g style="transform-origin:266.685px 384.02px" id="freepik--Post-it--inject-1--inject-147" class="animable"><polygon id="elaqkk885694a" points="245.17 379.71 234.22 397.7 258.47 402.4 267.86 384.41 245.17 379.71" class="animable" style="fill:#fff;stroke:#263238;stroke-linecap:round;stroke-linejoin:round;transform-origin:251.04px 391.055px"/><polygon id="eluzu585n6zcd" points="263.95 359.38 253 375.8 275.68 382.84 285.07 366.42 263.95 359.38" class="animable" style="fill:#407bff;transform-origin:269.035px 371.11px"/><g id="ela8499afup4i" class="animable" style="clip-path:url(#freepik--clip-path--inject-1--inject-147);transform-origin:269.035px 371.11px"><g id="elky6r7u2j94i"><polygon style="fill:#fff;stroke:#263238;stroke-miterlimit:10;opacity:.5;transform-origin:269.035px 371.11px" points="263.95 359.38 253 375.8 275.68 382.84 285.07 366.42 263.95 359.38" class="animable"/></g></g><polygon id="elin3ku1i56br" points="263.95 359.38 253 375.8 275.68 382.84 285.07 366.42 263.95 359.38" class="animable" style="fill:none;stroke:#263238;stroke-linecap:round;stroke-linejoin:round;transform-origin:269.035px 371.11px"/><polygon id="el6k1khaxjf38" points="288.2 390.67 268.64 396.14 276.46 408.66 299.15 403.18 288.2 390.67" class="animable" style="fill:#407bff;stroke:#263238;stroke-linecap:round;stroke-linejoin:round;transform-origin:283.895px 399.665px"/></g><g style="transform-origin:363.11px 385.612px" id="freepik--Plant--inject-1--inject-147" class="animable"><path id="elz014hkngdyd" d="M344,387.46,346,402.65c0,6.29,7.65,11.4,17.09,11.4s17.1-5.11,17.1-11.4l2.06-15.19Z" class="animable" style="fill:#407bff;stroke:#263238;stroke-linecap:round;stroke-linejoin:round;transform-origin:363.125px 400.755px"/><ellipse id="elcgs43vafa1j" cx="363.11" cy="387.46" class="animable" rx="19.15" ry="12.77" style="fill:#407bff;stroke:#263238;stroke-linecap:round;stroke-linejoin:round;transform-origin:363.11px 387.46px"/><ellipse id="elwgcs9ttbh7" cx="363.11" cy="387.46" class="animable" rx="16.29" ry="10.86" style="fill:#407bff;stroke:#263238;stroke-linecap:round;stroke-linejoin:round;transform-origin:363.11px 387.46px"/><ellipse id="elprfbngn8jtr" cx="363.11" cy="389.43" class="animable" rx="16.01" ry="8.9" style="fill:#263238;stroke:#263238;stroke-linecap:round;stroke-linejoin:round;transform-origin:363.11px 389.43px"/><path id="elyiba1x0hbwi" d="M368.88,358.31c-2.78-1.79-7-1.63-8.69,1.68-2.5,4.82-.71,13.75-1.61,15s-3.57,1.61-4.82-1.07-1.25-6.25-2.86-6.43-3.75.54-4.11,4.65.36,8.75,3.22,10.89,6.07,1.43,7,2.33,0,2.3,0,3.22c0,4,5.23,6,8.54,5,4.82-1.43,4.29-6.26,5-8.22s4.65-2.15,6.08-5.18,3.57-9.12.53-11.44-5.36-1.25-5.71,1.25a23.42,23.42,0,0,1-2,5.72C371.59,371.48,373.69,361.41,368.88,358.31Z" class="animable" style="fill:#407bff;transform-origin:362.705px 375.505px"/><g id="elvpuesm6olp" class="animable" style="clip-path:url(#freepik--clip-path-2--inject-1--inject-147);transform-origin:362.705px 375.505px"><g id="ele288gmq6ix"><path style="opacity:.2;transform-origin:362.705px 375.505px" d="M368.88,358.31c-2.78-1.79-7-1.63-8.69,1.68-2.5,4.82-.71,13.75-1.61,15s-3.57,1.61-4.82-1.07-1.25-6.25-2.86-6.43-3.75.54-4.11,4.65.36,8.75,3.22,10.89,6.07,1.43,7,2.33,0,2.3,0,3.22c0,4,5.23,6,8.54,5,4.82-1.43,4.29-6.26,5-8.22s4.65-2.15,6.08-5.18,3.57-9.12.53-11.44-5.36-1.25-5.71,1.25a23.42,23.42,0,0,1-2,5.72C371.59,371.48,373.69,361.41,368.88,358.31Z" class="animable"/></g></g><path id="elu7nvxnilc5m" d="M368.88,358.31c-2.78-1.79-7-1.63-8.69,1.68-2.5,4.82-.71,13.75-1.61,15s-3.57,1.61-4.82-1.07-1.25-6.25-2.86-6.43-3.75.54-4.11,4.65.36,8.75,3.22,10.89,6.07,1.43,7,2.33,0,2.3,0,3.22c0,4,5.23,6,8.54,5,4.82-1.43,4.29-6.26,5-8.22s4.65-2.15,6.08-5.18,3.57-9.12.53-11.44-5.36-1.25-5.71,1.25a23.42,23.42,0,0,1-2,5.72C371.59,371.48,373.69,361.41,368.88,358.31Z" class="animable" style="fill:none;stroke:#263238;stroke-linecap:round;stroke-linejoin:round;transform-origin:362.705px 375.505px"/><path id="elgpjog8d8jqt" d="M364.48,359.63a6.4,6.4,0,0,0-2.86,4.82c-.18,3.22,0,13.4-1.25,14.83s-5.36,1.07-8-1.43S350.9,370,350.9,370" class="animable" style="fill:none;stroke:#263238;stroke-linecap:round;stroke-linejoin:round;stroke-width:.5px;transform-origin:357.561px 369.873px"/><path id="elecjce40pxnq" d="M351.69,381a8.13,8.13,0,0,0,3.14,1.5c3.22.71,5.54-.89,6.08.71s-.54,7.33-.54,7.33" class="animable" style="fill:none;stroke:#263238;stroke-linecap:round;stroke-linejoin:round;stroke-width:.5px;transform-origin:356.376px 385.77px"/><path id="elgylyml9ka3" d="M349.83,379.1a8.08,8.08,0,0,0,1.14,1.29" class="animable" style="fill:none;stroke:#263238;stroke-linecap:round;stroke-linejoin:round;stroke-width:.5px;transform-origin:350.4px 379.745px"/><path id="elddz6kk8hrql" d="M364.42,387.61a66.55,66.55,0,0,0,.06-8c-.32-4,1.54-11.43,2-14.79" class="animable" style="fill:none;stroke:#263238;stroke-linecap:round;stroke-linejoin:round;stroke-width:.5px;transform-origin:365.45px 376.215px"/><path id="elnu5xbbr0mw" d="M364.12,391.79s.1-1.09.21-2.69" class="animable" style="fill:none;stroke:#263238;stroke-linecap:round;stroke-linejoin:round;stroke-width:.5px;transform-origin:364.225px 390.445px"/><path id="el1i9pq37nmff" d="M376.49,373.89c.09-.87.14-1.4.14-1.4" class="animable" style="fill:none;stroke:#263238;stroke-linecap:round;stroke-linejoin:round;stroke-width:.5px;transform-origin:376.56px 373.19px"/><path id="ela5lv7a9gloa" d="M368.05,388.57s.72-5.89,2.15-7,5.53-1.79,5.89-4.47c.06-.42.11-.82.16-1.19" class="animable" style="fill:none;stroke:#263238;stroke-linecap:round;stroke-linejoin:round;stroke-width:.5px;transform-origin:372.15px 382.24px"/><path id="elnjzwiqu2vwj" d="M374.13,370.17a2.47,2.47,0,0,0-1.08,2.32,5.74,5.74,0,0,1-2.85,5.36" class="animable" style="fill:none;stroke:#263238;stroke-linecap:round;stroke-linejoin:round;stroke-width:.5px;transform-origin:372.165px 374.01px"/><path id="eluj1o5ehkrn" d="M366.68,362.78a20.42,20.42,0,0,0-.06-3" class="animable" style="fill:none;stroke:#263238;stroke-linecap:round;stroke-linejoin:round;stroke-width:.5px;transform-origin:366.665px 361.28px"/></g><g style="transform-origin:313.82px 368.86px" id="freepik--Cup--inject-1--inject-147" class="animable"><path id="elqgvpls6ahe" d="M298.58,358.86l2.65,27.9v2.95c0,4,5.62,7.17,12.56,7.17s12.56-3.21,12.56-7.17v-2.95l2.41-28.19Z" class="animable" style="fill:#fff;stroke:#263238;stroke-linecap:round;stroke-linejoin:round;transform-origin:313.67px 377.725px"/><path id="elombbb43kf7q" d="M326.47,385.25,327.86,369c-1.87,2.91-7.45,5-14.05,5-6.95,0-12.76-2.34-14.31-5.49l1.58,16.64c2.56,2.13,7.29,3.57,12.73,3.57S323.91,387.35,326.47,385.25Z" class="animable" style="fill:#407bff;stroke:#263238;stroke-linecap:round;stroke-linejoin:round;transform-origin:313.68px 378.615px"/><polygon id="el6k4asgl4ixy" points="299.08 364.12 299.08 363.93 298.95 362.81 299.08 364.12" class="animable" style="fill:#fff;stroke:#263238;stroke-linecap:round;stroke-linejoin:round;transform-origin:299.015px 363.465px"/><path id="elhos6ef8dxhs" d="M329.24,354.72c-2.66-3.36-8.57-5.71-15.45-5.71s-12.79,2.35-15.46,5.71h-1.51v4c0,5.36,7.6,9.7,17,9.7s17-4.34,17-9.7v-4Z" class="animable" style="fill:#407bff;stroke:#263238;stroke-linecap:round;stroke-linejoin:round;transform-origin:313.82px 358.715px"/><g id="elof7qklxof4"><path style="opacity:.2;transform-origin:313.82px 358.715px" d="M329.24,354.72c-2.66-3.36-8.57-5.71-15.45-5.71s-12.79,2.35-15.46,5.71h-1.51v4c0,5.36,7.6,9.7,17,9.7s17-4.34,17-9.7v-4Z" class="animable"/></g><ellipse id="el062emql3sz4g" cx="313.79" cy="354.72" class="animable" rx="16.97" ry="9.7" style="fill:#fff;stroke:#263238;stroke-linecap:round;stroke-linejoin:round;transform-origin:313.79px 354.72px"/><path id="el267bu98fcs8" d="M327.29,349.31c-2.33-2.94-7.49-5-13.5-5s-11.17,2.05-13.5,5H299v3.48c0,4.68,6.63,8.47,14.82,8.47s14.82-3.79,14.82-8.47v-3.48Z" class="animable" style="fill:#407bff;stroke:#263238;stroke-linecap:round;stroke-linejoin:round;transform-origin:313.82px 352.785px"/><ellipse id="el8mpztxaqkv3" cx="313.79" cy="349.31" class="animable" rx="14.82" ry="8.47" style="fill:#fff;stroke:#263238;stroke-linecap:round;stroke-linejoin:round;transform-origin:313.79px 349.31px"/></g><g style="transform-origin:166.154px 240.535px" id="freepik--Cat--inject-1--inject-147" class="animable animator-active"><path id="elnbphxzhasqf" d="M164.21,267.06s1.16-.77,8.52,2.32,10.25,2.42,17.41,1.16c8.6-1.5,15.74-3,16.6.48,1.49,6-4.53,5.93-15.36,7.09s-17.11-2.15-20.59-3.7a35.06,35.06,0,0,1-4.64-2.32Z" class="animable" style="fill:#fff;stroke:#263238;stroke-linecap:round;stroke-linejoin:round;transform-origin:185.587px 272.663px"/><path id="el8n8hve51ast" d="M147.57,270.16s9.68,11.22,13.93,8.12,3.87-13.15,0-16.25S146.8,264.74,147.57,270.16Z" class="animable" style="fill:#fff;stroke:#263238;stroke-linecap:round;stroke-linejoin:round;transform-origin:156.039px 269.993px"/><path id="elt7qi7yhwgc" d="M177,239.2s.39,10.45-2.32,17.41-7.74,11.61-8.51,15.48-.39,9.29-4.26,10.84-3.87-1.16-3.48-4.26,1.16-14.7,1.16-14.7L146.8,271.7s3.48,9.68-3.87,10.84S126.68,272.48,125.52,264s3.48-27.48,11.61-32.51,18.57-4.25,24-4.25S174.66,231.08,177,239.2Z" class="animable" style="fill:#fff;stroke:#263238;stroke-linecap:round;stroke-linejoin:round;transform-origin:151.182px 255.288px"/><path id="el7dxu34dz8h7" d="M146.15,228.46s-2,1-5.49,6.49,3.49,10.22,7.24,7.73.49-7.73,3.24-10.23a8.87,8.87,0,0,0,3-5.24Z" class="animable" style="fill:#263238;transform-origin:146.925px 235.286px"/><path id="elcm6vfipliif" d="M134.93,236.19a7.89,7.89,0,0,0-3.25,5.49c-.25,3.49,6-3,6.74-6S134.93,236.19,134.93,236.19Z" class="animable" style="fill:#263238;transform-origin:135.09px 238.576px"/><path id="elldezo95pt7d" d="M157.25,228.37a10.15,10.15,0,0,0,.39,10.44c3.48,5.42,11.22,7.74,14.31,3.87s4.26-5.8,3.1-7.73S162.67,225.27,157.25,228.37Z" class="animable" style="fill:#407bff;stroke:#263238;stroke-linecap:round;stroke-linejoin:round;transform-origin:165.741px 236.124px"/><path id="el1cbmzp4l9hs" d="M185.88,209.41a10.26,10.26,0,0,1-8.12-2.71c-3.87-3.48-7.36-11.22-8.9-10.84s-7,11.61-7,11.61-9.29.78-10.06,3.48,3.48,15.48,7,20.9A18.65,18.65,0,0,0,173.5,240c4.64,0,18.57,1.16,20.51-3.49s.38-18.57.38-18.57,6.2-6.19,3.49-7.35S185.88,209.41,185.88,209.41Z" class="animable" style="fill:#fff;stroke:#263238;stroke-linecap:round;stroke-linejoin:round;transform-origin:175.137px 217.988px"/><path id="elb8bfkdw9wb6" d="M184,228.77c-.47-.61-.92-1.23-1.36-1.87-.73-1.08-2.46-2.73-5.79-1.68-4.74,1.49-8,6-2.74,9.73C179.06,238.5,189,235.3,184,228.77Z" class="animable" style="fill:#263238;transform-origin:178.391px 230.652px"/><path id="ely0feq338qpm" d="M161.89,207.47s5.42,3.1,8.51,1.94,1.16-14.32-1.54-13.55S161.5,202.44,161.89,207.47Z" class="animable" style="fill:#fff;stroke:#263238;stroke-linecap:round;stroke-linejoin:round;transform-origin:166.925px 202.749px"/><path id="el0sm3de7s4hq" d="M197.88,210.57s-5-.39-8.13,3.09-1.16,7,3.1,7.74S199.42,210.57,197.88,210.57Z" class="animable" style="fill:#fff;stroke:#263238;stroke-linecap:round;stroke-linejoin:round;transform-origin:193.287px 215.995px"/><path id="elx8kvhrqeavg" d="M167.7,232.24s-5-3.87-3.87-.78,3.09,3.49,5,2.71S167.7,232.24,167.7,232.24Z" class="animable" style="fill:#407bff;stroke:#263238;stroke-linecap:round;stroke-linejoin:round;transform-origin:166.562px 232.389px"/><path id="elr0z0urqr13" d="M164.94,222.54c-.29,1-1.11,1.7-1.83,1.5s-1.07-1.2-.78-2.23,1.11-1.7,1.83-1.5S165.23,221.52,164.94,222.54Z" class="animable" style="fill:#263238;transform-origin:163.635px 222.174px"/><path id="elgy93382stlu" d="M176.87,231.67c-.93.54-2,.46-2.36-.19s.06-1.6,1-2.14a1.74,1.74,0,0,1,2.36.18C178.23,230.17,177.79,231.13,176.87,231.67Z" class="animable" style="fill:#fff;transform-origin:176.189px 230.494px"/><path id="elnzjma5zeze" d="M142.16,256.23s-1.16,8.51.38,12,3.1,16.64,6.2,17,1.93-7,1.93-8.13.39-13.54.39-13.54,2.71-5.81,4.25-8.9" class="animable" style="fill:#fff;stroke:#263238;stroke-linecap:round;stroke-linejoin:round;transform-origin:148.525px 269.951px"/><path id="elrnije1rpdw8" d="M129.39,255.84s10.45-3.1,11.61,8.51" class="animable" style="fill:none;stroke:#263238;stroke-linecap:round;stroke-linejoin:round;transform-origin:135.195px 259.907px"/><path id="elpyqd3bs7d9h" d="M159.57,264s8.9-4.65,9.29-14.71" class="animable" style="fill:none;stroke:#263238;stroke-linecap:round;stroke-linejoin:round;transform-origin:164.215px 256.645px"/></g><g style="transform-origin:238.293px 246.125px" id="freepik--Character--inject-1--inject-147" class="animable"><line id="elqqwe1sa8pvt" x1="52" x2="58.59" y1="279.83" y2="278.34" class="animable" style="fill:none;stroke:#263238;stroke-linecap:round;stroke-linejoin:round;transform-origin:55.295px 279.085px"/><path id="el83ul1y8uc7x" d="M107,318.72l53.14-15.07a7.37,7.37,0,0,1,4.81,1.16l86.47,55.25a2.14,2.14,0,0,1-.89,3.92l-72.72,22.65Z" class="animable" style="fill:#407bff;stroke:#263238;stroke-linecap:round;stroke-linejoin:round;transform-origin:179.699px 345.119px"/><polygon id="el9ned5lf4imc" points="138.07 321.9 145.6 327.09 154.3 324.63 146.78 319.45 138.07 321.9" class="animable" style="fill:#263238;transform-origin:146.185px 323.27px"/><polygon id="elw1ivnvycko" points="142.76 336.41 135.24 331.22 126.53 333.68 134.06 338.87 142.76 336.41" class="animable" style="fill:#263238;transform-origin:134.645px 335.045px"/><polygon id="el3qxue6tng43" points="156.99 325.08 164.51 330.26 173.21 327.8 165.69 322.62 156.99 325.08" class="animable" style="fill:#263238;transform-origin:165.1px 326.44px"/><polygon id="ele4w5zjt7oxs" points="165.76 331.12 173.28 336.3 181.98 333.84 174.46 328.66 165.76 331.12" class="animable" style="fill:#263238;transform-origin:173.87px 332.48px"/><polygon id="els4fz9h2n39q" points="146.84 327.94 154.36 333.13 163.06 330.67 155.54 325.49 146.84 327.94" class="animable" style="fill:#263238;transform-origin:154.95px 329.31px"/><polygon id="elkmz8vep1rbs" points="127.92 324.77 135.44 329.96 144.15 327.5 136.62 322.31 127.92 324.77" class="animable" style="fill:#263238;transform-origin:136.035px 326.135px"/><polygon id="elh2jrxsrun3" points="187.97 357.7 180.44 352.51 171.75 354.97 179.27 360.16 187.97 357.7" class="animable" style="fill:#263238;transform-origin:179.86px 356.335px"/><polygon id="eldth22utrr5e" points="177.81 360.57 170.29 355.38 161.59 357.84 169.12 363.02 177.81 360.57" class="animable" style="fill:#263238;transform-origin:169.7px 359.2px"/><polygon id="el2q8b3hl70ze" points="151.52 342.45 144 337.26 135.3 339.72 142.82 344.9 151.52 342.45" class="animable" style="fill:#263238;transform-origin:143.41px 341.08px"/><polygon id="elr5cf3x0chh" points="196.73 363.74 189.21 358.56 180.51 361.01 188.03 366.2 196.73 363.74" class="animable" style="fill:#263238;transform-origin:188.62px 362.38px"/><polygon id="elg6ndsuson36" points="160.29 348.49 152.76 343.3 144.06 345.76 151.59 350.94 160.29 348.49" class="animable" style="fill:#263238;transform-origin:152.175px 347.12px"/><polygon id="elgdcyu84jsr7" points="169.05 354.53 161.53 349.34 152.83 351.8 160.35 356.99 169.05 354.53" class="animable" style="fill:#263238;transform-origin:160.94px 353.165px"/><polygon id="el37y9i4vdeen" points="174.52 337.16 182.04 342.34 190.74 339.88 183.22 334.7 174.52 337.16" class="animable" style="fill:#263238;transform-origin:182.63px 338.52px"/><polygon id="elpmltrkqjhv" points="136.69 330.81 144.21 336 152.91 333.54 145.39 328.36 136.69 330.81" class="animable" style="fill:#263238;transform-origin:144.8px 332.18px"/><polygon id="el3d0j17r6t5g" points="206.88 360.87 199.36 355.69 190.66 358.15 198.18 363.33 206.88 360.87" class="animable" style="fill:#263238;transform-origin:198.77px 359.51px"/><polygon id="elupakqhmldka" points="180.59 342.75 173.07 337.57 164.37 340.02 171.89 345.21 180.59 342.75" class="animable" style="fill:#263238;transform-origin:172.48px 341.39px"/><polygon id="elokk225bupzh" points="161.67 339.58 154.15 334.39 145.45 336.85 152.97 342.04 161.67 339.58" class="animable" style="fill:#263238;transform-origin:153.56px 338.215px"/><polygon id="elepug421ufc5" points="125.23 324.33 120.83 321.29 114.88 322.96 118.36 326.27 125.23 324.33" class="animable" style="fill:#263238;transform-origin:120.055px 323.78px"/><polygon id="eldp6vubud7jd" points="133.99 330.37 126.47 325.18 119.34 327.2 125.23 332.78 125.29 332.82 133.99 330.37" class="animable" style="fill:#263238;transform-origin:126.665px 329px"/><polygon id="el1q967calxvp" points="155.6 333.99 163.13 339.17 171.83 336.71 164.3 331.53 155.6 333.99" class="animable" style="fill:#263238;transform-origin:163.715px 335.35px"/><polygon id="el78ua5i4e7c4" points="170.44 345.62 162.92 340.44 154.22 342.89 161.74 348.08 170.44 345.62" class="animable" style="fill:#263238;transform-origin:162.33px 344.26px"/><polygon id="el3ju1otrbdgk" points="208.27 351.96 200.75 346.78 192.05 349.24 199.57 354.42 208.27 351.96" class="animable" style="fill:#263238;transform-origin:200.16px 350.6px"/><polygon id="el8pwl264wsyy" points="183.28 343.2 190.81 348.38 199.51 345.92 191.99 340.74 183.28 343.2" class="animable" style="fill:#263238;transform-origin:191.395px 344.56px"/><polygon id="elj63worp892" points="198.12 354.83 190.6 349.65 181.9 352.11 189.42 357.29 198.12 354.83" class="animable" style="fill:#263238;transform-origin:190.01px 353.47px"/><polygon id="elu3n0ntndt2n" points="189.35 348.79 181.83 343.61 173.13 346.06 180.66 351.25 189.35 348.79" class="animable" style="fill:#263238;transform-origin:181.24px 347.43px"/><polygon id="el9tf3mhr3nyc" points="179.2 351.66 171.68 346.48 162.98 348.93 170.5 354.12 179.2 351.66" class="animable" style="fill:#263238;transform-origin:171.09px 350.3px"/><polygon id="el0dfyyq2013ip" points="141.37 345.31 133.85 340.13 133.18 340.32 139.11 345.95 141.37 345.31" class="animable" style="fill:#263238;transform-origin:137.275px 343.04px"/><polygon id="eldxn93jrj8d5" points="208.13 361.73 199.43 364.19 208.45 370.4 216.93 367.79 208.13 361.73" class="animable" style="fill:#263238;transform-origin:208.18px 366.065px"/><polygon id="ele673knwwvsd" points="197.97 364.6 189.27 367.05 198.56 373.45 207.03 370.84 197.97 364.6" class="animable" style="fill:#263238;transform-origin:198.15px 369.025px"/><polygon id="elpir1ay0emln" points="158.9 357.39 151.38 352.21 147.01 353.44 152.95 359.08 158.9 357.39" class="animable" style="fill:#263238;transform-origin:152.955px 355.645px"/><polygon id="elrsxm3x59z9" points="217.04 358 209.51 352.82 200.81 355.28 208.34 360.46 217.04 358" class="animable" style="fill:#263238;transform-origin:208.925px 356.64px"/><polygon id="elxd2irezv68l" points="167.66 363.44 160.14 358.25 153.93 360.01 159.86 365.64 167.66 363.44" class="animable" style="fill:#263238;transform-origin:160.795px 361.945px"/><polygon id="elq4w9ujumj6" points="176.43 369.48 168.91 364.29 160.84 366.57 166.78 372.2 176.43 369.48" class="animable" style="fill:#263238;transform-origin:168.635px 368.245px"/><polygon id="elhglqa2egz44" points="186.58 366.61 179.06 361.42 170.36 363.88 177.88 369.07 186.58 366.61" class="animable" style="fill:#263238;transform-origin:178.47px 365.245px"/><path id="el1479ikaifbs" d="M235.72,358.47l-5-3.13-11,3.11,8.5,5.86,6.62-2A2.07,2.07,0,0,0,235.72,358.47Z" class="animable" style="fill:#263238;transform-origin:228.225px 359.825px"/><polygon id="elxka0w3nugin" points="177.67 370.33 167.76 373.13 175.56 380.53 187.25 376.93 177.67 370.33" class="animable" style="fill:#263238;transform-origin:177.505px 375.43px"/><polygon id="elnif9pbq3c7" points="221.44 349.45 210.97 352.41 218.49 357.59 229.44 354.5 221.44 349.45" class="animable" style="fill:#263238;transform-origin:220.205px 353.52px"/><polygon id="elb9g5vjlx9k5" points="218.28 358.86 209.58 361.32 218.34 367.36 226.82 364.75 218.28 358.86" class="animable" style="fill:#263238;transform-origin:218.2px 363.11px"/><polygon id="elsb7hurad4q8" points="157.14 315.31 164.25 313.3 159.66 310.4 152.8 312.32 157.14 315.31" class="animable" style="fill:#263238;transform-origin:158.525px 312.855px"/><polygon id="eligf6tpbnsl9" points="197.14 373.89 187.82 367.46 179.12 369.92 188.66 376.5 197.14 373.89" class="animable" style="fill:#263238;transform-origin:188.13px 371.98px"/><polygon id="el7ebxsxluekg" points="158.38 316.17 165.9 321.35 173.57 319.19 165.57 314.14 158.38 316.17" class="animable" style="fill:#263238;transform-origin:165.975px 317.745px"/><polygon id="el22a0bh8nb5t" points="175.91 328.25 183.43 333.43 192.19 330.96 184.2 325.91 175.91 328.25" class="animable" style="fill:#263238;transform-origin:184.05px 329.67px"/><polygon id="el71od7o4e78j" points="167.14 322.21 174.67 327.39 182.88 325.07 174.88 320.02 167.14 322.21" class="animable" style="fill:#263238;transform-origin:175.01px 323.705px"/><polygon id="elxwz1ox80ss" points="184.67 334.29 192.19 339.47 201.5 336.85 193.51 331.79 184.67 334.29" class="animable" style="fill:#263238;transform-origin:193.085px 335.63px"/><polygon id="ele7evh66sxkp" points="193.44 340.33 200.96 345.51 210.81 342.73 202.82 337.68 193.44 340.33" class="animable" style="fill:#263238;transform-origin:202.125px 341.595px"/><polygon id="el3z9qq96ijwf" points="212.13 343.56 202.2 346.37 209.72 351.55 220.12 348.62 212.13 343.56" class="animable" style="fill:#263238;transform-origin:211.16px 347.555px"/><polygon id="elwvq4zyp5zql" points="148.23 319.04 155.75 324.22 164.45 321.76 156.93 316.58 148.23 319.04" class="animable" style="fill:#263238;transform-origin:156.34px 320.4px"/><polygon id="elqy8j2wtgr1" points="130.66 337.94 132.2 339.39 132.6 339.27 130.66 337.94" class="animable" style="fill:#263238;transform-origin:131.63px 338.665px"/><polygon id="elcppm24va11s" points="126.68 323.92 135.38 321.46 131 318.44 122.28 320.88 126.68 323.92" class="animable" style="fill:#263238;transform-origin:128.83px 321.18px"/><polygon id="el5ds6lzglize" points="136.83 321.05 145.53 318.59 141.17 315.58 132.45 318.03 136.83 321.05" class="animable" style="fill:#263238;transform-origin:138.99px 318.315px"/><polygon id="el870g2zliv4a" points="142.63 315.18 146.99 318.18 155.69 315.72 151.34 312.73 142.63 315.18" class="animable" style="fill:#263238;transform-origin:149.16px 315.455px"/><polygon id="elu86szu00vt" points="150.13 351.36 142.61 346.17 140.09 346.88 146.03 352.51 150.13 351.36" class="animable" style="fill:#263238;transform-origin:145.11px 349.34px"/><path id="elmtqs1086so" d="M177.76,386.63l-23-93.11a11.22,11.22,0,0,0-3.25-5.52l-62-57.81a1.68,1.68,0,0,0-2.78,1.61L107,318.72Z" class="animable" style="fill:#407bff;stroke:#263238;stroke-linecap:round;stroke-linejoin:round;transform-origin:132.223px 308.185px"/><path id="elj3jmzti586a" d="M143,284.19l7.09,6.2s2.21.44,4.42,11.51" class="animable" style="fill:none;stroke:#263238;stroke-linecap:round;stroke-linejoin:round;stroke-width:.5px;transform-origin:148.755px 293.045px"/><line id="elbu8r5256fh" x1="155.84" x2="168.91" y1="307.65" y2="364.29" class="animable" style="fill:none;stroke:#263238;stroke-linecap:round;stroke-linejoin:round;stroke-width:.5px;transform-origin:162.375px 335.97px"/><path id="el2zqg180xezy" d="M117.57,281.66c3.07,7.46,2.79,14.65-.63,16.06s-8.69-3.5-11.76-11-2.79-14.65.63-16.05S114.5,274.2,117.57,281.66Z" class="animable" style="fill:#407bff;transform-origin:111.375px 284.197px"/><g id="el1k59xg521ix"><path style="fill:#fff;opacity:.6;transform-origin:111.375px 284.197px" d="M117.57,281.66c3.07,7.46,2.79,14.65-.63,16.06s-8.69-3.5-11.76-11-2.79-14.65.63-16.05S114.5,274.2,117.57,281.66Z" class="animable"/></g><g id="el49460i46x8v"><ellipse style="fill:none;stroke:#263238;stroke-miterlimit:10;transform-origin:111.37px 284.21px;transform:rotate(-22.38deg)" cx="111.37" cy="284.21" class="animable" rx="4.76" ry="10.39"/></g><path id="elnie3c0b6p3l" d="M122.31,312.25c1.6,3.87.94,7.81-1.46,8.8s-5.64-1.35-7.24-5.21-.93-7.81,1.47-8.8S120.72,308.39,122.31,312.25Z" class="animable" style="fill:#263238;transform-origin:117.962px 314.045px"/><path id="elf56qvp7acsi" d="M119,318.8c-1.51,0-3.15-1.37-4-3.51a6.53,6.53,0,0,1-.48-3.5,2.86,2.86,0,0,1,1.62-2.33c1.69-.7,3.85.77,4.91,3.34h0c1.05,2.57.55,5.13-1.14,5.83A2.42,2.42,0,0,1,119,318.8Zm-2-8.51a1.24,1.24,0,0,0-.5.1,1.9,1.9,0,0,0-1,1.57,5.51,5.51,0,0,0,.42,3c.81,2,2.46,3.26,3.6,2.79s1.41-2.54.59-4.52C119.36,311.48,118,310.29,117,310.29Z" class="animable" style="fill:#407bff;transform-origin:118.028px 314.043px"/><g id="elrhbn4udu1gi"><g class="animable" style="opacity:.5;transform-origin:118.028px 314.043px"><path id="eljn01o6d9dxs" d="M119,318.8c-1.51,0-3.15-1.37-4-3.51a6.53,6.53,0,0,1-.48-3.5,2.86,2.86,0,0,1,1.62-2.33c1.69-.7,3.85.77,4.91,3.34h0c1.05,2.57.55,5.13-1.14,5.83A2.42,2.42,0,0,1,119,318.8Zm-2-8.51a1.24,1.24,0,0,0-.5.1,1.9,1.9,0,0,0-1,1.57,5.51,5.51,0,0,0,.42,3c.81,2,2.46,3.26,3.6,2.79s1.41-2.54.59-4.52C119.36,311.48,118,310.29,117,310.29Z" class="animable" style="fill:#fff;transform-origin:118.028px 314.043px"/></g></g><path id="el77o1ns0cs35" d="M140.14,313.49l-5.69,9a1.33,1.33,0,0,0,0,1.48l12.18,17.76a1.36,1.36,0,0,0,2,.28l6.31-5.15a1.34,1.34,0,0,0,.31-1.73l-12.81-21.59A1.34,1.34,0,0,0,140.14,313.49Z" class="animable" style="fill:#263238;transform-origin:144.832px 327.595px"/><path id="elrbhxaw8y7wh" d="M130.24,325.42S146,322.8,156.83,345l2.69-3.31s-10.43-17.37-18.93-18.92S129,321.21,129,321.21Z" class="animable" style="fill:#407bff;transform-origin:144.26px 333.105px"/><g id="elo61gfm7g0nr"><path style="fill:#fff;opacity:.5;transform-origin:144.26px 333.105px" d="M130.24,325.42S146,322.8,156.83,345l2.69-3.31s-10.43-17.37-18.93-18.92S129,321.21,129,321.21Z" class="animable"/></g><line id="el3rot8b8euq" x1="62.27" x2="87.99" y1="277.51" y2="271.7" class="animable" style="fill:none;stroke:#263238;stroke-linecap:round;stroke-linejoin:round;transform-origin:75.13px 274.605px"/><path id="el3o154m2rgku" d="M225.57,333.51a82.2,82.2,0,0,1-9.31.93c-4.83.19-6.88.19-6.14,1.31s6.52,2.23,8.56,2.6S225.57,333.51,225.57,333.51Z" class="animable" style="fill:#fff;stroke:#263238;stroke-miterlimit:10;transform-origin:217.771px 335.939px"/><line id="ela8v2fm62zw" x1="406.93" x2="398.32" y1="373.96" y2="369.46" class="animable" style="fill:none;stroke:#263238;stroke-linecap:round;stroke-linejoin:round;transform-origin:402.625px 371.71px"/><path id="ele4oelaueyx" d="M234.94,268.86s1.81-3.17,2.57.76Z" class="animable" style="fill:#263238;transform-origin:236.225px 268.636px"/><line id="el774verj7rig" x1="392.99" x2="183.07" y1="366.67" y2="257" class="animable" style="fill:none;stroke:#263238;stroke-linecap:round;stroke-linejoin:round;transform-origin:288.03px 311.835px"/><polygon id="elw0ijel7t1g" points="188.59 299.95 232.7 328.39 268.98 313.59 220.11 288.75 188.59 299.95" class="animable" style="fill:#263238;stroke:#263238;stroke-linecap:round;stroke-linejoin:round;transform-origin:228.785px 308.57px"/><line id="elruea1rt45fd" x1="216.94" x2="199.36" y1="294.02" y2="300.23" class="animable" style="fill:none;stroke:#fff;stroke-linecap:round;stroke-linejoin:round;stroke-width:.5px;transform-origin:208.15px 297.125px"/><polyline id="elptn7u0avjw" points="202.12 302.3 233.84 322.3 259.69 312.3" class="animable" style="fill:none;stroke:#fff;stroke-linecap:round;stroke-linejoin:round;stroke-width:.5px;transform-origin:230.905px 312.3px"/><path id="elvo8as3pozps" d="M370.34,165.56s25.26,4,33.39,17.54,2.32,34.82-.39,42.17c-2.45,6.67,4.79,12.24,9.24,15.86,10,8.12,15.15,19.58,9.95,32.05-3.24,7.76-17.65,11.24-15.7,20.58s10.44,22.44-.39,32.12c-11.43,10.2-28.58,4.94-38.6-4.59-11.27-10.72-15.15-29.37-9.38-43.78,7-17.41,10.83-28.63,4.25-36s-15.09-12-15.09-22.44,9.29-13.54,13.16-24-1.55-21.28-1.55-21.28Z" class="animable" style="fill:#263238;stroke:#263238;stroke-linecap:round;stroke-linejoin:round;transform-origin:386.103px 248.493px"/><path id="elizq9l9ly94" d="M394,183.62c4.88,3.69,9.32,9.9,7.78,20-3.12,20.5-18.27,21.84-8.47,34.76s18.72,7.12,16.93,23.16-7.57,21.83-7.57,21.83" class="animable" style="fill:none;stroke:#fff;stroke-miterlimit:10;transform-origin:400.262px 233.495px"/><path id="el2stzvs8n8ei" d="M383.55,178.69a27.67,27.67,0,0,1,5.66,2" class="animable" style="fill:none;stroke:#fff;stroke-miterlimit:10;transform-origin:386.38px 179.69px"/><path id="elwbiuue39c9p" d="M378.65,184.49s12.92,3.56,16.93,14.25-12,19.61-12.92,26.29" class="animable" style="fill:none;stroke:#fff;stroke-miterlimit:10;transform-origin:387.437px 204.76px"/><path id="elc6mwoxorh6l" d="M378.08,358.88c-.18-6.13-.26-14.31.11-22.94.78-17.8,22.06-41.41,22.83-45.66s-1.16-5-1.16-5l-42.18-18.19c-19.61,12.88-24.38,50.34-25.55,67.82Z" class="animable" style="fill:#407bff;stroke:#263238;stroke-linecap:round;stroke-linejoin:round;transform-origin:366.666px 312.985px"/><path id="el0csg8gjgw0dr" d="M395.28,286.41s3.54,2.21,0,5.75S382,310.75,378,319.6" class="animable" style="fill:none;stroke:#263238;stroke-linecap:round;stroke-linejoin:round;stroke-width:.5px;transform-origin:387.427px 303.005px"/><path id="eltzf6x7rnjk" d="M376.25,324s-3.1,7.08-2.65,14.16.44,13.72.44,13.72" class="animable" style="fill:none;stroke:#263238;stroke-linecap:round;stroke-linejoin:round;stroke-width:.5px;transform-origin:374.903px 337.94px"/><path id="elykmh4ny8oda" d="M293.51,276.8c1.86,4.84,4.1,15.25,2.61,21.2-.77,3.09-3.35,9.58-5.64,15.11l56.87,29.72c-.06-11.84.09-30.53,1.6-34,2.23-5.21,20.09-54.31,19-65.47s-22.69-27.16-22.69-27.16L348.57,189l-19.71,11.91s-2.24,10.78-4.47,13.39-20.46,6.32-25.67,13-3.35,27.16-3.35,28.27S291.65,272,293.51,276.8Z" class="animable" style="fill:#fff;transform-origin:329.239px 265.915px"/><g id="el6p877yzp1g8" class="animable" style="clip-path:url(#freepik--clip-path-3--inject-1--inject-147);transform-origin:347.6px 220.425px"><g id="eltw3wl8m4w8s"><path style="fill:#407bff;opacity:.5;mix-blend-mode:multiply;transform-origin:347.6px 220.425px" d="M367.92,243.32c-1.12-11.16-22.69-27.16-22.69-27.16L348.57,189l-19.71,11.91s-.65,3.11-1.59,6.4c1.27-.11,2.69-.29,4.28-.57,7.52-1.33,11.51-4,11.51-4l-4,16.82s20.36,12,25.67,26.56c.72,2,1.49,3.87,2.28,5.73A33,33,0,0,0,367.92,243.32Z" class="animable"/></g></g><path id="elgzh3pour98c" d="M293.51,276.8c1.86,4.84,4.1,15.25,2.61,21.2-.77,3.09-3.35,9.58-5.64,15.11l56.87,29.72c-.06-11.84.09-30.53,1.6-34,2.23-5.21,20.09-54.31,19-65.47s-22.69-27.16-22.69-27.16L348.57,189l-19.71,11.91s-2.24,10.78-4.47,13.39-20.46,6.32-25.67,13-3.35,27.16-3.35,28.27S291.65,272,293.51,276.8Z" class="animable" style="fill:none;stroke:#263238;stroke-linecap:round;stroke-linejoin:round;transform-origin:329.239px 265.915px"/><path id="elzbard0zj3cr" d="M293.51,276.8c1.86,4.84,4.1,15.25,2.61,21.2-.77,3.09-3.35,9.58-5.64,15.11l56.87,29.72c-.06-11.84.09-30.53,1.6-34,2.23-5.21,20.09-54.31,19-65.47-.69-6.95-9.31-15.76-15.72-21.43-6.31,6.69-20,19.17-30,13.61-9-5-8.43-12.6-7.1-17.12-6.08,2.24-13.35,5.1-16.34,8.94-5.21,6.7-3.35,27.16-3.35,28.27S291.65,272,293.51,276.8Z" class="animable" style="fill:#263238;stroke:#263238;stroke-linecap:round;stroke-linejoin:round;transform-origin:329.239px 280.625px"/><path id="el1u269v21t7a" d="M326.73,263.58l-12.38-5.81s-3.49-5.8-5.42-5.8-3.1,8.13-3.1,8.13-6.57,6.19-4.25,12.38,10.83,15.48,21.28,12,7.35-14.31,7.35-14.31,4.26-7.35,4.26-8.9S326.73,263.58,326.73,263.58Z" class="animable" style="fill:#fff;stroke:#263238;stroke-linecap:round;stroke-linejoin:round;transform-origin:317.777px 268.604px"/><path id="eledt9ex5x6nh" d="M300.21,143.61s2.61,13.4,2.23,22.7-4.09,13-3,17.11,14.51,19.35,22.69,20.83,27.53-11.16,33.11-16.74,6.32-13.76,5.58-17.11-3.72-30.13-14.88-40.92S305.42,119.81,300.21,143.61Z" class="animable" style="fill:#fff;transform-origin:330.15px 163.649px"/><g id="elbwqfqr55y1i" class="animable" style="clip-path:url(#freepik--clip-path-4--inject-1--inject-147);transform-origin:342.2px 163.648px"><g id="elz34gawc2wf"><path style="fill:#407bff;opacity:.5;mix-blend-mode:multiply;transform-origin:342.2px 163.648px" d="M346,129.48c-4.17-4-10.89-6.4-17.94-6.55l-.46,13.88s-2.22,13.72,5.75,24.78,15.05,14.17,15.93,18.59S346.16,189,336,196.56a76.65,76.65,0,0,1-12.71,7.8c8.71.31,26.66-11.5,32-16.85,5.58-5.58,6.32-13.76,5.58-17.11S357.13,140.27,346,129.48Z" class="animable"/></g></g><path id="elxj5tlf9qvxm" d="M300.21,143.61s2.61,13.4,2.23,22.7-4.09,13-3,17.11,14.51,19.35,22.69,20.83,27.53-11.16,33.11-16.74,6.32-13.76,5.58-17.11-3.72-30.13-14.88-40.92S305.42,119.81,300.21,143.61Z" class="animable" style="fill:none;stroke:#263238;stroke-linecap:round;stroke-linejoin:round;transform-origin:330.15px 163.649px"/><path id="el8pb67gwtl3p" d="M314.35,171.14s-1.12,7.07-3,9.3a9.26,9.26,0,0,0,5.21,2.24" class="animable" style="fill:none;stroke:#263238;stroke-linecap:round;stroke-linejoin:round;transform-origin:313.955px 176.91px"/><path id="elf5ajew9564w" d="M315.09,189a17,17,0,0,0,15.25-.74" class="animable" style="fill:none;stroke:#263238;stroke-linecap:round;stroke-linejoin:round;transform-origin:322.715px 189.359px"/><path id="elcx7kf6gz3m6" d="M328.48,167.42c0,1.24-.58,2.24-1.3,2.24s-1.3-1-1.3-2.24.58-2.23,1.3-2.23S328.48,166.19,328.48,167.42Z" class="animable" style="fill:#263238;transform-origin:327.18px 167.425px"/><path id="elh69s7bswwke" d="M310.07,164.45c0,1.23-.58,2.23-1.3,2.23s-1.3-1-1.3-2.23.58-2.23,1.3-2.23S310.07,163.22,310.07,164.45Z" class="animable" style="fill:#263238;transform-origin:308.77px 164.45px"/><path id="elu5bku791p8" d="M305.05,154.78a9.17,9.17,0,0,1,7.07-1.12" class="animable" style="fill:none;stroke:#263238;stroke-linecap:round;stroke-linejoin:round;transform-origin:308.585px 154.084px"/><path id="el5b8cmx349p3" d="M322.53,155.15s2.23-1.12,7.07,1.86" class="animable" style="fill:none;stroke:#263238;stroke-linecap:round;stroke-linejoin:round;transform-origin:326.065px 155.977px"/><path id="el9te7b4w2hrq" d="M324.76,133.57s-10.41,8.56-15.62,13.76-7.44,8.93-15.25,5.59-13.4-14.89-3-28.65,30.51-17.86,50.22-12.28,27.91,18.23,29.39,32S369,173,362,177.1s-22.7-12.65-28.28-23.07A148.35,148.35,0,0,1,324.76,133.57Z" class="animable" style="fill:#263238;stroke:#263238;stroke-linecap:round;stroke-linejoin:round;transform-origin:328.036px 143.655px"/><path id="elo1tydbhbyii" d="M324.76,133.57s-28.09,4.14-29.42,10.37,7.13,4.46,7.13,4.46" class="animable" style="fill:none;stroke:#fff;stroke-miterlimit:10;transform-origin:309.979px 141.101px"/><path id="eliamttuo0zk7" d="M291.72,137.68c-1.9,4.06-.39,6.71-.39,6.71" class="animable" style="fill:none;stroke:#fff;stroke-miterlimit:10;transform-origin:291.241px 141.035px"/><path id="elggdtz5z0jlg" d="M352.81,120.33s-27.18-4.45-27.18,7.57c0,0-16.48-5.79-27.17,2.23a27.29,27.29,0,0,0-4.39,4" class="animable" style="fill:none;stroke:#fff;stroke-miterlimit:10;transform-origin:323.44px 126.827px"/><path id="el52661ujfpzq" d="M327,130.58s6.93,22.36,21.39,28.07" class="animable" style="fill:none;stroke:#fff;stroke-miterlimit:10;transform-origin:337.695px 144.615px"/><path id="elegtzycx7nwj" d="M341.42,136.59c5.57,4.6,13.54,9.14,23,8.69" class="animable" style="fill:none;stroke:#fff;stroke-miterlimit:10;transform-origin:352.92px 140.95px"/><path id="el8xeviiol0ph" d="M332.76,127.46a45.83,45.83,0,0,0,4.28,5.07" class="animable" style="fill:none;stroke:#fff;stroke-miterlimit:10;transform-origin:334.9px 129.995px"/><path id="el17i822lvwfi" d="M297.61,156.64l43.52,7.44s0,6.62-1.86,10-4.09,3.42-8.93,3.42-11.57-3-11.9-4.09c-.77-2.64-.25-11.35-.25-11.35l-3.47-.56s.45,10.15-1.41,11.27-14.14-1.12-16.37-4.09S296.12,156.26,297.61,156.64Z" class="animable" style="fill:none;stroke:#263238;stroke-linecap:round;stroke-linejoin:round;transform-origin:318.455px 167.064px"/><polygon id="elt5trk0k8e3" points="341.13 164.08 360.48 160.73 360.48 163.33 341.13 168.17 341.13 164.08" class="animable" style="fill:#407bff;stroke:#263238;stroke-linecap:round;stroke-linejoin:round;transform-origin:350.805px 164.45px"/><g id="el4w9yuivz127"><ellipse style="fill:#407bff;stroke:#263238;stroke-linecap:round;stroke-linejoin:round;transform-origin:364.1px 164.68px;transform:rotate(-80.87deg)" cx="364.1" cy="164.68" class="animable" rx="17.25" ry="10.79"/></g><path id="elq0r5qvl4f5" d="M377.87,166.77c-1.27,7.92-5.68,13.79-9.83,13.12s-6.5-7.62-5.23-15.54,5.67-13.78,9.83-13.11S379.14,158.86,377.87,166.77Z" class="animable" style="fill:#407bff;stroke:#263238;stroke-linecap:round;stroke-linejoin:round;transform-origin:370.34px 165.565px"/><path id="el5iodrcpiv8t" d="M372,133.57a88.2,88.2,0,0,1-3.35,30.88s-.37,6,5.21,3.35,4.84-25.3,4.09-34.6S370.15,126.5,372,133.57Z" class="animable" style="fill:#fff;stroke:#263238;stroke-linecap:round;stroke-linejoin:round;transform-origin:373.554px 147.836px"/><path id="elhw7g14vgqj4" d="M351.18,116.08s8.55-2.23,13,5.59,3.72,14.88,10,15.62,6.7-6.32,3.35-15.25-10.41-15.63-20.09-16.37S343,112.74,343,112.74,348.2,113.48,351.18,116.08Z" class="animable" style="fill:#407bff;stroke:#263238;stroke-linecap:round;stroke-linejoin:round;transform-origin:361.303px 121.482px"/><path id="elxufqk0or3vn" d="M350.43,255.22l-25.67,58.41s-69.94,13-76.26,13-19,4.46-21.58,6-27.87,13.15-23,13.87c3,.45,10.76-3.82,10.76-3.82s-12.28,6-11.17,7.81,16-5.58,16-5.58-13.61,8-10.82,8.45c2.54.45,5.61-1,8.22-2.87a30.24,30.24,0,0,1,7.29-3.24s-6,4-6.71,5.82,1.49.74,3.72,0a92.23,92.23,0,0,0,12.07-6.3c1.48-1.12,5.95-3.35,8.93-5.95l5.95-5.21s39.8,1.11,58,.37,27.16-2.6,33.86-9.3,25.67-49.11,30.13-60.64,1.49-18.23-3-26" class="animable" style="fill:#fff;transform-origin:287.827px 297.055px"/><g id="elipruhd9vz7r" class="animable" style="clip-path:url(#freepik--clip-path-5--inject-1--inject-147);transform-origin:310.996px 294.398px"><g id="elvz3qx3jxx6"><path style="fill:#407bff;opacity:.5;mix-blend-mode:multiply;transform-origin:310.996px 294.398px" d="M351.47,293.49c-12,22.57-22.13,29.65-32.75,35s-69.05,6.64-69.05,6.64l2.46.59c10.55.26,39.32.87,54,.27,18.23-.74,27.16-2.6,33.86-9.3s25.67-49.11,30.13-60.64c2.07-5.34,2.53-9.64,2-13.5l-2.53,1.59A358.68,358.68,0,0,1,351.47,293.49Z" class="animable"/></g></g><path id="elb14r4p2gz1c" d="M350.43,255.22l-25.67,58.41s-69.94,13-76.26,13-19,4.46-21.58,6-27.87,13.15-23,13.87c3,.45,10.76-3.82,10.76-3.82s-12.28,6-11.17,7.81,16-5.58,16-5.58-13.61,8-10.82,8.45c2.54.45,5.61-1,8.22-2.87a30.24,30.24,0,0,1,7.29-3.24s-6,4-6.71,5.82,1.49.74,3.72,0a92.23,92.23,0,0,0,12.07-6.3c1.48-1.12,5.95-3.35,8.93-5.95l5.95-5.21s39.8,1.11,58,.37,27.16-2.6,33.86-9.3,25.67-49.11,30.13-60.64,1.49-18.23-3-26" class="animable" style="fill:none;stroke:#263238;stroke-miterlimit:10;transform-origin:287.827px 297.055px"/><path id="elwthi2coxm6" d="M350,253.75,342.19,274c5.74-3.06,16.51-7.17,25.1-1,1.21-2.84,2.2-5.24,2.86-6.95,4.47-11.53,1.49-18.23-3-26" class="animable" style="fill:#263238;stroke:#263238;stroke-linecap:round;stroke-linejoin:round;transform-origin:357.275px 257.025px"/><path id="elm5fdgtxw4xa" d="M294.73,280.62c-7.55,2.21-37.37,10.94-40.14,11.59a42.59,42.59,0,0,1-5.21.93s-10.42-4.47-13.21-6.51-6.14-.75-7.81,0-3,5.95.19,5.95,3.72-.19,7.25,2.79,3.54,4.47,6.14,5.58,6.89.37,9.12,0c2-.33,36.58-2.63,45.09-3.08C297.26,293.19,296.15,285.88,294.73,280.62Z" class="animable" style="fill:#fff;transform-origin:261.605px 291.078px"/><g id="elhtuy15wunkl" class="animable" style="clip-path:url(#freepik--clip-path-6--inject-1--inject-147);transform-origin:273.831px 293.5px"><g id="el7bod6x1z67"><path style="fill:#407bff;opacity:.5;mix-blend-mode:multiply;transform-origin:273.831px 293.5px" d="M295.92,286,251.06,301c2-.33,36.58-2.63,45.09-3.08C296.91,294.66,296.63,290.21,295.92,286Z" class="animable"/></g></g><path id="el5qiqycbfs1q" d="M294.73,280.62c-7.55,2.21-37.37,10.94-40.14,11.59a42.59,42.59,0,0,1-5.21.93s-10.42-4.47-13.21-6.51-6.14-.75-7.81,0-3,5.95.19,5.95,3.72-.19,7.25,2.79,3.54,4.47,6.14,5.58,6.89.37,9.12,0c2-.33,36.58-2.63,45.09-3.08C297.26,293.19,296.15,285.88,294.73,280.62Z" class="animable" style="fill:none;stroke:#263238;stroke-linecap:round;stroke-linejoin:round;transform-origin:261.605px 291.078px"/><path id="elheyxc9eid2l" d="M220.17,292.77s-3.91,2.23-5,4.83,1.11,1.86,1.86,1.31,3.91-3.17,3.91-3.17Z" class="animable" style="fill:#fff;stroke:#263238;stroke-linecap:round;stroke-linejoin:round;transform-origin:217.906px 296.108px"/><path id="eluukmv29m3h8" d="M221.29,290.9a4.47,4.47,0,0,0-2,4.47c.37,3.16,3.72,7.81,4.1,5.95S221.29,290.9,221.29,290.9Z" class="animable" style="fill:#fff;stroke:#263238;stroke-linecap:round;stroke-linejoin:round;transform-origin:221.332px 296.323px"/><path id="el2qz9tkm3evr" d="M225.94,288.11s-3.54.93-4.65,2.79.74,9.87,2.05,10.42a2,2,0,0,0,2.79-1.48C226.5,298.53,225.94,288.11,225.94,288.11Z" class="animable" style="fill:#fff;stroke:#263238;stroke-linecap:round;stroke-linejoin:round;transform-origin:223.603px 294.803px"/><path id="elqqziimuhkhc" d="M230.41,286.25s-4.66,0-5.21,2.24-1.49,11.9-.56,13.39,2.42.93,3.16-.93S230.41,286.25,230.41,286.25Z" class="animable" style="fill:#fff;stroke:#263238;stroke-linecap:round;stroke-linejoin:round;transform-origin:227.328px 294.491px"/><path id="elm58ckorzhbj" d="M234.64,268.92,227,303.71l1.2,4.44a.4.4,0,0,0,.67.18l3.34-3.32,5.58-35.16Z" class="animable" style="fill:#263238;transform-origin:232.395px 288.684px"/><path id="elkijow7gzuma" d="M242.13,297s-4.28,1.68-7.63,3.17-6.7,2.23-6.33,4.28,1.86,1.3,4.28.56a50.93,50.93,0,0,1,10.24-2.42c4.65-.56,8.37-4.84,8.37-4.84" class="animable" style="fill:#fff;stroke:#263238;stroke-linecap:round;stroke-linejoin:round;transform-origin:239.601px 301.389px"/><path id="elsejy1tgfpy8" d="M227.1,304.25l.78,3.28a.93.93,0,0,0,1.54.46l1.83-1.74" class="animable" style="fill:none;stroke:#fff;stroke-linecap:round;stroke-linejoin:round;stroke-width:.5px;transform-origin:229.175px 306.246px"/><line id="elqe72wnxskxf" x1="227.01" x2="230.96" y1="303.71" y2="286.09" class="animable" style="fill:none;stroke:#fff;stroke-linecap:round;stroke-linejoin:round;stroke-width:.5px;transform-origin:228.985px 294.9px"/><line id="elno873g6gxg" x1="90.34" x2="140.79" y1="234.62" y2="281.54" class="animable" style="fill:none;stroke:#263238;stroke-linecap:round;stroke-linejoin:round;stroke-width:.5px;transform-origin:115.565px 258.08px"/></g><defs><filter id="active" height="200%"><feMorphology in="SourceAlpha" operator="dilate" radius="2" result="DILATED"/><feFlood flood-color="#32DFEC" flood-opacity="1" result="PINK"/><feComposite in="PINK" in2="DILATED" operator="in" result="OUTLINE"/><feMerge><feMergeNode in="OUTLINE"/><feMergeNode in="SourceGraphic"/></feMerge></filter><filter id="hover" height="200%"><feMorphology in="SourceAlpha" operator="dilate" radius="2" result="DILATED"/><feFlood flood-color="red" flood-opacity=".5" result="PINK"/><feComposite in="PINK" in2="DILATED" operator="in" result="OUTLINE"/><feMerge><feMergeNode in="OUTLINE"/><feMergeNode in="SourceGraphic"/></feMerge><feColorMatrix type="matrix" values="0 0 0 0 0 0 1 0 0 0 0 0 0 0 0 0 0 0 1 0"/></filter></defs><defs><clipPath id="freepik--clip-path--inject-1--inject-147"><polygon style="fill:#407bff;stroke:#263238;stroke-linecap:round;stroke-linejoin:round" points="263.95 359.38 253 375.8 275.68 382.84 285.07 366.42 263.95 359.38"/></clipPath><clipPath id="freepik--clip-path-2--inject-1--inject-147"><path style="fill:#407bff;stroke:#263238;stroke-linecap:round;stroke-linejoin:round" d="M368.88,358.31c-2.78-1.79-7-1.63-8.69,1.68-2.5,4.82-.71,13.75-1.61,15s-3.57,1.61-4.82-1.07-1.25-6.25-2.86-6.43-3.75.54-4.11,4.65.36,8.75,3.22,10.89,6.07,1.43,7,2.33,0,2.3,0,3.22c0,4,5.23,6,8.54,5,4.82-1.43,4.29-6.26,5-8.22s4.65-2.15,6.08-5.18,3.57-9.12.53-11.44-5.36-1.25-5.71,1.25a23.42,23.42,0,0,1-2,5.72C371.59,371.48,373.69,361.41,368.88,358.31Z"/></clipPath><clipPath id="freepik--clip-path-3--inject-1--inject-147"><path style="fill:#fff;stroke:#263238;stroke-linecap:round;stroke-linejoin:round" d="M293.51,276.8c1.86,4.84,4.1,15.25,2.61,21.2-.77,3.09-3.35,9.58-5.64,15.11l56.87,29.72c-.06-11.84.09-30.53,1.6-34,2.23-5.21,20.09-54.31,19-65.47s-22.69-27.16-22.69-27.16L348.57,189l-19.71,11.91s-2.24,10.78-4.47,13.39-20.46,6.32-25.67,13-3.35,27.16-3.35,28.27S291.65,272,293.51,276.8Z"/></clipPath><clipPath id="freepik--clip-path-4--inject-1--inject-147"><path style="fill:#fff;stroke:#263238;stroke-linecap:round;stroke-linejoin:round" d="M300.21,143.61s2.61,13.4,2.23,22.7-4.09,13-3,17.11,14.51,19.35,22.69,20.83,27.53-11.16,33.11-16.74,6.32-13.76,5.58-17.11-3.72-30.13-14.88-40.92S305.42,119.81,300.21,143.61Z"/></clipPath><clipPath id="freepik--clip-path-5--inject-1--inject-147"><path style="fill:#fff;stroke:#263238;stroke-miterlimit:10" d="M350.43,255.22l-25.67,58.41s-69.94,13-76.26,13-19,4.46-21.58,6-27.87,13.15-23,13.87c3,.45,10.76-3.82,10.76-3.82s-12.28,6-11.17,7.81,16-5.58,16-5.58-13.61,8-10.82,8.45c2.54.45,5.61-1,8.22-2.87a30.24,30.24,0,0,1,7.29-3.24s-6,4-6.71,5.82,1.49.74,3.72,0a92.23,92.23,0,0,0,12.07-6.3c1.48-1.12,5.95-3.35,8.93-5.95l5.95-5.21s39.8,1.11,58,.37,27.16-2.6,33.86-9.3,25.67-49.11,30.13-60.64,1.49-18.23-3-26"/></clipPath><clipPath id="freepik--clip-path-6--inject-1--inject-147"><path style="fill:#fff;stroke:#263238;stroke-linecap:round;stroke-linejoin:round" d="M294.73,280.62c-7.55,2.21-37.37,10.94-40.14,11.59a42.59,42.59,0,0,1-5.21.93s-10.42-4.47-13.21-6.51-6.14-.75-7.81,0-3,5.95.19,5.95,3.72-.19,7.25,2.79,3.54,4.47,6.14,5.58,6.89.37,9.12,0c2-.33,36.58-2.63,45.09-3.08C297.26,293.19,296.15,285.88,294.73,280.62Z"/></clipPath></defs></svg>