<svg xmlns="http://www.w3.org/2000/svg" xmlns:xlink="http://www.w3.org/1999/xlink" id="Layer_1" x="0" y="0" version="1.1" viewBox="0 0 200 200" xml:space="preserve" style="enable-background:new 0 0 200 200"><style type="text/css">.st0{clip-path:url(#SVGID_2_)}.st1{fill:none;stroke:#e6e6e6;stroke-miterlimit:10}</style><g><defs><rect id="SVGID_1_" width="200" height="200" x="-.5" y="-.5"/></defs><clipPath id="SVGID_2_"><use xlink:href="#SVGID_1_" style="overflow:visible"/></clipPath><g class="st0"><path d="M158.3-24.4c-12-0.8-24.5-1.5-36,2.4c-5.3,1.8-10.9,4.2-14.6,8.8c-3.4,4.4-5.2,10-5.9,15.5 C99.9,16.7,104,35.6,91.6,46c-4.6,3.9-10.6,5.4-16.3,6.5c-22.8,4.6-56.8,4.4-67.9,30.4c-5.2,12.2-4.9,26.6-5.8,39.7" class="st1"/><path d="M167.2-19.3c-12-0.8-24.5-1.5-36,2.4c-5.3,1.8-10.9,4.2-14.6,8.8c-3.4,4.4-5.2,10-5.9,15.5 c-1.9,14.4,2.3,33.2-10.1,43.7c-4.6,3.9-10.6,5.4-16.3,6.5C61.3,62.3,27.3,62,16.2,88c-5.2,12.2-4.9,26.6-5.8,39.7" class="st1"/><path d="M176-14.2c-12-0.8-24.5-1.5-36,2.4c-5.3,1.8-10.9,4.2-14.6,8.8c-3.4,4.4-5.2,10-5.9,15.5 c-1.9,14.4,2.3,33.2-10.1,43.7c-4.6,3.9-10.6,5.4-16.3,6.5C70.2,67.4,36.1,67.1,25,93.1c-5.2,12.2-4.9,26.6-5.8,39.7" class="st1"/><path d="M184.9-9.1c-12-0.8-24.5-1.5-36,2.4c-5.3,1.8-10.9,4.2-14.6,8.8c-3.4,4.4-5.2,10-5.9,15.5 c-1.9,14.4,2.3,33.2-10.1,43.7c-4.6,3.9-10.6,5.4-16.3,6.5C79,72.5,45,72.2,33.9,98.2c-5.2,12.2-4.9,26.6-5.8,39.7" class="st1"/><path d="M193.7-4c-12-0.8-24.5-1.5-36,2.4c-5.3,1.8-10.9,4.2-14.6,8.8c-3.4,4.4-5.2,10-5.9,15.5 c-1.9,14.4,2.3,33.2-10.1,43.7c-4.6,3.9-10.6,5.4-16.3,6.5c-22.8,4.6-56.8,4.4-67.9,30.4c-5.2,12.2-4.9,26.6-5.8,39.7" class="st1"/><path d="M202.6,1.1c-12-0.8-24.5-1.5-36,2.4c-5.3,1.8-10.9,4.2-14.6,8.8c-3.4,4.4-5.2,10-5.9,15.5 c-1.9,14.4,2.3,33.2-10.1,43.7c-4.6,3.9-10.6,5.4-16.3,6.5c-22.8,4.6-56.8,4.4-67.9,30.4c-5.2,12.2-4.9,26.6-5.8,39.7" class="st1"/><path d="M211.4,6.2c-12-0.8-24.5-1.5-36,2.4c-5.3,1.8-10.9,4.2-14.6,8.8c-3.4,4.4-5.2,10-5.9,15.5 c-1.9,14.4,2.3,33.2-10.1,43.7c-4.6,3.9-10.6,5.4-16.3,6.5c-22.8,4.6-56.8,4.4-67.9,30.4c-5.2,12.2-4.9,26.6-5.8,39.7" class="st1"/><path d="M220.3,11.3c-12-0.8-24.5-1.5-36,2.4c-5.3,1.8-10.9,4.2-14.6,8.8c-3.4,4.4-5.2,10-5.9,15.5 c-1.9,14.4,2.3,33.2-10.1,43.7c-4.6,3.9-10.6,5.4-16.3,6.5c-22.8,4.6-56.8,4.4-67.9,30.4c-5.2,12.2-4.9,26.6-5.8,39.7" class="st1"/><path d="M229.1,16.4c-12-0.8-24.5-1.5-36,2.4c-5.3,1.8-10.9,4.2-14.6,8.8c-3.4,4.4-5.2,10-5.9,15.5 c-1.9,14.4,2.3,33.2-10.1,43.7c-4.6,3.9-10.6,5.4-16.3,6.5c-22.8,4.6-56.8,4.4-67.9,30.4c-5.2,12.2-4.9,26.6-5.8,39.7" class="st1"/><path d="M238,21.5c-12-0.8-24.5-1.5-36,2.4c-5.3,1.8-10.9,4.2-14.6,8.8c-3.4,4.4-5.2,10-5.9,15.5 c-1.9,14.4,2.3,33.2-10.1,43.7c-4.6,3.9-10.6,5.4-16.3,6.5c-22.8,4.6-56.8,4.4-67.9,30.4c-5.2,12.2-4.9,26.6-5.8,39.7" class="st1"/><path d="M246.8,26.6c-12-0.8-24.5-1.5-36,2.4c-5.3,1.8-10.9,4.2-14.6,8.8c-3.4,4.4-5.2,10-5.9,15.5 c-1.9,14.4,2.3,33.2-10.1,43.7c-4.6,3.9-10.6,5.4-16.3,6.5c-22.8,4.6-56.8,4.4-67.9,30.4c-5.2,12.2-4.9,26.6-5.8,39.7" class="st1"/><path d="M255.6,31.7c-12-0.8-24.5-1.5-36,2.4c-5.3,1.8-10.9,4.2-14.6,8.8c-3.4,4.4-5.2,10-5.9,15.5 c-1.9,14.4,2.3,33.2-10.1,43.7c-4.6,3.9-10.6,5.4-16.3,6.5c-22.8,4.6-56.8,4.4-67.9,30.4c-5.2,12.2-4.9,26.6-5.8,39.7" class="st1"/><path d="M264.5,36.8c-12-0.8-24.5-1.5-36,2.4c-5.3,1.8-10.9,4.2-14.6,8.8c-3.4,4.4-5.2,10-5.9,15.5 c-1.9,14.4,2.3,33.2-10.1,43.7c-4.6,3.9-10.6,5.4-16.3,6.5c-22.8,4.6-56.8,4.4-67.9,30.4c-5.2,12.2-4.9,26.6-5.8,39.7" class="st1"/><path d="M273.3,41.9c-12-0.8-24.5-1.5-36,2.4c-5.3,1.8-10.9,4.2-14.6,8.8c-3.4,4.4-5.2,10-5.9,15.5 c-1.9,14.4,2.3,33.2-10.1,43.7c-4.6,3.9-10.6,5.4-16.3,6.5c-22.8,4.6-56.8,4.4-67.9,30.4c-5.2,12.2-4.9,26.6-5.8,39.7" class="st1"/><path d="M282.2,47c-12-0.8-24.5-1.5-36,2.4c-5.3,1.8-10.9,4.2-14.6,8.8c-3.4,4.4-5.2,10-5.9,15.5 c-1.9,14.4,2.3,33.2-10.1,43.7c-4.6,3.9-10.6,5.4-16.3,6.5c-22.8,4.6-56.8,4.4-67.9,30.4c-5.2,12.2-4.9,26.6-5.8,39.7" class="st1"/></g></g></svg>