<svg xmlns="http://www.w3.org/2000/svg" xmlns:xlink="http://www.w3.org/1999/xlink" id="Layer_1" width="200" height="200" x="0" y="0" version="1.1" viewBox="0 0 280 270" xml:space="preserve" style="enable-background:new 0 0 200 200"><style type="text/css">.st0{fill:#ffdc71}</style><path d="M265.3,45.4c-5.9-16.4-19.6-28.1-35.7-34c-21.7-8-46.5-8-69.1-4.2c-38.3,6.5-72.3,29.6-100.7,54.5	c-3.4,3-6.7,6-9.9,9.2c-20.6,20.3-37,45.3-40.5,74.6c-3.3,27.5,3.7,57,22.3,78.1c18.4,20.9,45.2,31.7,72.2,35.9	c19.8,3.1,41.1,4,61.1,1.6c17.4-2.1,34.8-8,47.6-19.9c25-23.3,21.5-60.6,30.8-91c0.8-2.8,1.8-5.6,2.8-8.3	c5.2-14.4,12-28.2,16.8-42.8C268.6,81.7,271.5,62.5,265.3,45.4z" class="st0"/></svg>